# xmcd CD database file
#
# Track frame offsets:
#	182
#	25030
#	50607
#	77645
#	111967
#	131990
#	147000
#	170052
#	185145
#	211160
#	238682
#	263575
#	293757
#
# Disc length: 4246 seconds
#
# Revision: 2
# Processed by: cddbd v1.5.2PL0 Copyright (c) Steve Scherf et al.
# Submitted via: CDex 1.70beta2
#
DISCID=be10940d
DTITLE=Various Artist - Label Bleu - Blue Tribes
DYEAR=1900
DGENRE=Jazz
TTITLE0=Battista Lena - Il Cha-Cha-Cha Dei Cosmonauti
TTITLE1=Stefano Bollani - Rever Et Reveler
TTITLE2=Julien Lourau - Tu Mi Turbi
TTITLE3=Magic Malik Orchestra - Madness
TTITLE4=Claude Barthelemy - Munir
TTITLE5=Gary Lucas - Please Allow Me To Look At You Again
TTITLE6=Innocent X - Mylene
TTITLE7=David Krakaur - Tribe No 13th
TTITLE8=Opus Akoben - EPO
TTITLE9=Steve Coleman And Five Elements - Dizzy Atmosphere
TTITLE10=Henri Texier - Leila
TTITLE11=Enrico Rava/Stefano Bollani - Theme For Jessica
TTITLE12=Bojan Zulfikarpasic - Don't Buy Ivory Anymore
EXTD=
EXTT0=
EXTT1=
EXTT2=
EXTT3=
EXTT4=
EXTT5=
EXTT6=
EXTT7=
EXTT8=
EXTT9=
EXTT10=
EXTT11=
EXTT12=
PLAYORDER=
